<svg width="40" height="40" viewBox="0 0 40 40" fill="none" xmlns="http://www.w3.org/2000/svg">
  <circle cx="20" cy="20" r="20" fill="#3A7BD5"/>
  <path d="M30 15.9C30 14.2 29.4 12.7 28.3 11.6C27.1 10.4 25.7 9.8 24 9.8H16C14.3 9.8 12.9 10.4 11.7 11.6C10.6 12.7 10 14.2 10 15.9V24C10 25.7 10.6 27.2 11.7 28.3C12.9 29.5 14.3 30.1 16 30.1H24C25.7 30.1 27.1 29.5 28.3 28.3C29.4 27.2 30 25.7 30 24V15.9Z" fill="white"/>
  <path d="M24.5 21L24.5 19C24.5 18.1716 23.8284 17.5 23 17.5L17 17.5C16.1716 17.5 15.5 18.1716 15.5 19L15.5 21C15.5 21.8284 16.1716 22.5 17 22.5L23 22.5C23.8284 22.5 24.5 21.8284 24.5 21Z" fill="#3A7BD5"/>
  <path d="M15.5 14.5C15.5 15.3284 16.1716 16 17 16H23C23.8284 16 24.5 15.3284 24.5 14.5C24.5 13.6716 23.8284 13 23 13H17C16.1716 13 15.5 13.6716 15.5 14.5Z" fill="#3A7BD5"/>
  <path d="M24.5 25.5C24.5 26.3284 23.8284 27 23 27H17C16.1716 27 15.5 26.3284 15.5 25.5C15.5 24.6716 16.1716 24 17 24H23C23.8284 24 24.5 24.6716 24.5 25.5Z" fill="#3A7BD5"/>
</svg>
